<svg width="45" height="45" viewBox="0 0 45 45" fill="none" xmlns="http://www.w3.org/2000/svg">
<circle cx="22.5" cy="22.5" r="22.5" fill="#F16E6E" fill-opacity="0.2"/>
<path d="M22.5004 8.94873C19.6775 8.95206 16.9713 10.0749 14.9752 12.0709C12.9792 14.067 11.8564 16.7732 11.853 19.5961C11.8497 21.9029 12.6032 24.1471 13.998 25.9844C13.998 25.9844 14.2884 26.3668 14.3358 26.422L22.5004 36.051L30.6688 26.4171C30.7114 26.3658 31.0027 25.9844 31.0027 25.9844L31.0037 25.9815C32.3978 24.145 33.151 21.9018 33.1477 19.5961C33.1443 16.7732 32.0215 14.067 30.0255 12.0709C28.0294 10.0749 25.3232 8.95206 22.5004 8.94873ZM22.5004 23.4678C21.7346 23.4678 20.986 23.2407 20.3493 22.8153C19.7126 22.3899 19.2164 21.7852 18.9233 21.0777C18.6303 20.3702 18.5536 19.5918 18.703 18.8407C18.8524 18.0897 19.2211 17.3998 19.7626 16.8583C20.3041 16.3168 20.994 15.9481 21.745 15.7987C22.4961 15.6493 23.2745 15.726 23.982 16.019C24.6895 16.3121 25.2942 16.8083 25.7196 17.445C26.145 18.0817 26.3721 18.8303 26.3721 19.5961C26.3708 20.6225 25.9625 21.6066 25.2367 22.3324C24.5109 23.0582 23.5268 23.4665 22.5004 23.4678Z" fill="#F16E6E"/>
<path d="M22.5002 23.4679C24.6385 23.4679 26.3719 21.7344 26.3719 19.5961C26.3719 17.4578 24.6385 15.7244 22.5002 15.7244C20.3619 15.7244 18.6284 17.4578 18.6284 19.5961C18.6284 21.7344 20.3619 23.4679 22.5002 23.4679Z" fill="#F16E6E" fill-opacity="0.2"/>
</svg>
