<svg width="118" height="46" viewBox="0 0 118 46" fill="none" xmlns="http://www.w3.org/2000/svg">
<path d="M4.186 8.37H7.82L11.546 27H8.395L7.659 22.699H4.416L3.657 27H0.46L4.186 8.37ZM7.291 20.537L6.026 12.717L4.761 20.537H7.291ZM18.0218 27.253C16.3351 27.253 15.0701 26.7777 14.2268 25.827C13.3988 24.8763 12.9464 23.458 12.8698 21.572L15.7908 20.997C15.8368 22.1777 16.0208 23.0823 16.3428 23.711C16.6801 24.3243 17.2014 24.631 17.9068 24.631C18.4281 24.631 18.8114 24.4777 19.0568 24.171C19.3174 23.849 19.4478 23.4197 19.4478 22.883C19.4478 22.147 19.2791 21.526 18.9418 21.02C18.6198 20.4987 18.1061 19.9313 17.4008 19.318L15.0548 17.271C14.3341 16.6577 13.7898 15.9983 13.4218 15.293C13.0691 14.5877 12.8928 13.7443 12.8928 12.763C12.8928 11.3063 13.3144 10.1793 14.1578 9.382C15.0164 8.56933 16.1971 8.163 17.6998 8.163C19.3098 8.163 20.4598 8.623 21.1498 9.543C21.8551 10.4477 22.2614 11.6743 22.3688 13.223L19.4478 13.729C19.4018 12.717 19.2561 11.958 19.0108 11.452C18.7808 10.9307 18.3208 10.67 17.6308 10.67C17.1401 10.67 16.7568 10.8387 16.4808 11.176C16.2048 11.498 16.0668 11.912 16.0668 12.418C16.0668 13.016 16.1818 13.522 16.4118 13.936C16.6571 14.3347 17.0481 14.764 17.5848 15.224L19.9078 17.271C20.7818 18.0223 21.4641 18.8273 21.9548 19.686C22.4454 20.5447 22.6908 21.5413 22.6908 22.676C22.6908 23.5653 22.4914 24.355 22.0928 25.045C21.7094 25.735 21.1651 26.2793 20.4598 26.678C19.7544 27.0613 18.9418 27.253 18.0218 27.253ZM29.2073 27.253C27.5206 27.253 26.2556 26.7777 25.4123 25.827C24.5843 24.8763 24.132 23.458 24.0553 21.572L26.9763 20.997C27.0223 22.1777 27.2063 23.0823 27.5283 23.711C27.8656 24.3243 28.387 24.631 29.0923 24.631C29.6136 24.631 29.997 24.4777 30.2423 24.171C30.503 23.849 30.6333 23.4197 30.6333 22.883C30.6333 22.147 30.4646 21.526 30.1273 21.02C29.8053 20.4987 29.2916 19.9313 28.5863 19.318L26.2403 17.271C25.5196 16.6577 24.9753 15.9983 24.6073 15.293C24.2546 14.5877 24.0783 13.7443 24.0783 12.763C24.0783 11.3063 24.5 10.1793 25.3433 9.382C26.202 8.56933 27.3826 8.163 28.8853 8.163C30.4953 8.163 31.6453 8.623 32.3353 9.543C33.0406 10.4477 33.447 11.6743 33.5543 13.223L30.6333 13.729C30.5873 12.717 30.4416 11.958 30.1963 11.452C29.9663 10.9307 29.5063 10.67 28.8163 10.67C28.3256 10.67 27.9423 10.8387 27.6663 11.176C27.3903 11.498 27.2523 11.912 27.2523 12.418C27.2523 13.016 27.3673 13.522 27.5973 13.936C27.8426 14.3347 28.2336 14.764 28.7703 15.224L31.0933 17.271C31.9673 18.0223 32.6496 18.8273 33.1403 19.686C33.631 20.5447 33.8763 21.5413 33.8763 22.676C33.8763 23.5653 33.677 24.355 33.2783 25.045C32.895 25.735 32.3506 26.2793 31.6453 26.678C30.94 27.0613 30.1273 27.253 29.2073 27.253ZM40.9865 27.253C39.6372 27.253 38.5792 27.0077 37.8125 26.517C37.0459 26.0263 36.5092 25.3287 36.2025 24.424C35.8959 23.5193 35.7425 22.3693 35.7425 20.974V8.37H39.0545V21.365C39.0545 22.4383 39.1772 23.2663 39.4225 23.849C39.6832 24.4317 40.2045 24.723 40.9865 24.723C41.7839 24.723 42.3052 24.4317 42.5505 23.849C42.8112 23.2663 42.9415 22.4383 42.9415 21.365V8.37H46.2305V20.974C46.2305 22.354 46.0772 23.504 45.7705 24.424C45.4639 25.3287 44.9272 26.0263 44.1605 26.517C43.3939 27.0077 42.3359 27.253 40.9865 27.253ZM49.1839 8.37H52.7029L55.3479 21.273L58.0849 8.37H61.5119L61.8569 27H59.3269L59.0509 14.051L56.4059 27H54.3589L51.6679 14.005L51.4149 27H48.8619L49.1839 8.37ZM64.6081 8.37H70.0821C73.2561 8.37 74.8431 10.1333 74.8431 13.66C74.8431 17.0333 73.1794 18.72 69.8521 18.72H67.9891V27H64.6081V8.37ZM69.3001 16.328C70.2201 16.328 70.8411 16.1363 71.1631 15.753C71.4851 15.3543 71.6461 14.649 71.6461 13.637C71.6461 12.901 71.5924 12.3413 71.4851 11.958C71.3777 11.5593 71.1554 11.2603 70.8181 11.061C70.4961 10.8617 69.9901 10.762 69.3001 10.762H67.9891V16.328H69.3001Z" fill="#222222"/>
<path d="M78.6 10.877H75.633V8.37H84.902V10.877H82.004V27H78.6V10.877ZM86.6893 8.37H90.0473V27H86.6893V8.37ZM98.0143 27.253C96.0823 27.253 94.7023 26.7393 93.8743 25.712C93.0463 24.6693 92.6323 23.1513 92.6323 21.158V14.166C92.6323 12.188 93.0463 10.693 93.8743 9.681C94.7023 8.669 96.0823 8.163 98.0143 8.163C99.931 8.163 101.303 8.669 102.131 9.681C102.959 10.693 103.373 12.188 103.373 14.166V21.158C103.373 23.136 102.952 24.6463 102.108 25.689C101.28 26.7317 99.9157 27.253 98.0143 27.253ZM98.0143 24.746C98.7657 24.746 99.2717 24.5083 99.5323 24.033C99.793 23.5577 99.9233 22.8677 99.9233 21.963V13.384C99.9233 12.4793 99.793 11.797 99.5323 11.337C99.287 10.877 98.781 10.647 98.0143 10.647C97.2477 10.647 96.734 10.8847 96.4733 11.36C96.2127 11.82 96.0823 12.4947 96.0823 13.384V21.963C96.0823 22.8677 96.2127 23.5577 96.4733 24.033C96.734 24.5083 97.2477 24.746 98.0143 24.746ZM105.891 8.37H108.26L112.791 18.996V8.37H115.597V27H113.343L108.789 15.868V27H105.891V8.37Z" fill="#76C893"/>
<path d="M30.85 40.34H27.67L27.06 42H26.32L28.87 35.1H29.66L32.2 42H31.46L30.85 40.34ZM30.64 39.76L29.26 35.98L27.88 39.76H30.64ZM36.0034 38.5C36.0034 37.8133 36.1534 37.2 36.4534 36.66C36.7534 36.1133 37.1634 35.69 37.6834 35.39C38.2034 35.0833 38.7834 34.93 39.4234 34.93C40.2034 34.93 40.8701 35.1167 41.4234 35.49C41.9834 35.8567 42.3901 36.3767 42.6434 37.05H41.8234C41.6234 36.5767 41.3168 36.2067 40.9034 35.94C40.4968 35.6733 40.0034 35.54 39.4234 35.54C38.9101 35.54 38.4468 35.66 38.0334 35.9C37.6268 36.14 37.3068 36.4867 37.0734 36.94C36.8401 37.3867 36.7234 37.9067 36.7234 38.5C36.7234 39.0933 36.8401 39.6133 37.0734 40.06C37.3068 40.5067 37.6268 40.85 38.0334 41.09C38.4468 41.33 38.9101 41.45 39.4234 41.45C40.0034 41.45 40.4968 41.32 40.9034 41.06C41.3168 40.7933 41.6234 40.4267 41.8234 39.96H42.6434C42.3901 40.6267 41.9834 41.1433 41.4234 41.51C40.8634 41.8767 40.1968 42.06 39.4234 42.06C38.7834 42.06 38.2034 41.91 37.6834 41.61C37.1634 41.3033 36.7534 40.88 36.4534 40.34C36.1534 39.8 36.0034 39.1867 36.0034 38.5ZM51.0883 40.34H47.9083L47.2983 42H46.5583L49.1083 35.1H49.8983L52.4383 42H51.6983L51.0883 40.34ZM50.8783 39.76L49.4983 35.98L48.1183 39.76H50.8783ZM58.6317 35.01C59.4051 35.01 60.0684 35.15 60.6217 35.43C61.1751 35.71 61.5984 36.1133 61.8917 36.64C62.1851 37.1667 62.3317 37.7933 62.3317 38.52C62.3317 39.24 62.1851 39.8633 61.8917 40.39C61.5984 40.91 61.1751 41.31 60.6217 41.59C60.0684 41.8633 59.4051 42 58.6317 42H56.5617V35.01H58.6317ZM58.6317 41.42C59.6051 41.42 60.3451 41.1667 60.8517 40.66C61.3651 40.1467 61.6217 39.4333 61.6217 38.52C61.6217 37.6 61.3651 36.8833 60.8517 36.37C60.3451 35.85 59.6051 35.59 58.6317 35.59H57.2617V41.42H58.6317ZM67.3223 35.58V38.19H69.9723V38.77H67.3223V41.42H70.2723V42H66.6223V35H70.2723V35.58H67.3223ZM81.4816 35.1V42H80.7816V36.49L78.3216 42H77.8116L75.3516 36.51V42H74.6516V35.1H75.3916L78.0616 41.08L80.7316 35.1H81.4816ZM90.6895 35.01L88.4495 39.28V42H87.7495V39.28L85.4895 35.01H86.2795L88.0995 38.64L89.9095 35.01H90.6895Z" fill="#222222"/>
</svg>
